<svg width="280" height="64" viewBox="0 0 280 64" fill="none" xmlns="http://www.w3.org/2000/svg">
<path d="M0 49.8759V2.29982H17.2706C20.6173 2.29982 23.3883 2.85735 25.5836 3.97241C27.7788 5.07199 29.4215 6.56649 30.5114 8.4559C31.6014 10.3298 32.1464 12.4438 32.1464 14.7978C32.1464 16.7802 31.7856 18.4528 31.0641 19.8156C30.3426 21.163 29.3754 22.2471 28.1626 23.0679C26.9652 23.8732 25.645 24.4617 24.2019 24.8334V25.298C25.7678 25.3754 27.2953 25.8865 28.7844 26.8312C30.2888 27.7604 31.5323 29.0846 32.5148 30.8036C33.4973 32.5227 33.9886 34.6134 33.9886 37.0759C33.9886 39.5073 33.4206 41.691 32.2845 43.6269C31.1639 45.5472 29.4291 47.0727 27.0803 48.2033C24.7315 49.3183 21.7303 49.8759 18.0766 49.8759H0ZM7.1155 43.7198H17.3858C20.7938 43.7198 23.2347 43.0538 24.7085 41.722C26.1823 40.3901 26.9191 38.7252 26.9191 36.7274C26.9191 35.2252 26.543 33.8468 25.7908 32.5924C25.0386 31.3379 23.964 30.339 22.567 29.5956C21.1853 28.8523 19.5427 28.4806 17.6391 28.4806H7.1155V43.7198ZM7.1155 22.882H16.6489C18.2455 22.882 19.6808 22.5723 20.955 21.9528C22.2446 21.3333 23.2655 20.4661 24.0177 19.351C24.7853 18.2204 25.1691 16.8886 25.1691 15.3554C25.1691 13.3885 24.4859 11.7391 23.1196 10.4073C21.7533 9.07538 19.6578 8.40944 16.8331 8.40944H7.1155V22.882Z" fill="black"/>
<path d="M43.6339 63.2566C42.6053 63.2566 41.6689 63.1715 40.8245 63.0011C39.9802 62.8462 39.3508 62.6759 38.9363 62.49L40.5943 56.7986C41.8531 57.1393 42.9738 57.2864 43.9563 57.2399C44.9388 57.1935 45.8061 56.8218 46.5584 56.1249C47.326 55.428 48.0014 54.2897 48.5848 52.71L49.4368 50.3405L36.4954 14.1938H43.8642L52.8219 41.8846H53.1903L62.148 14.1938H69.5398L54.9634 54.6381C54.2879 56.4966 53.4282 58.0685 52.3843 59.3539C51.3404 60.6548 50.0969 61.6305 48.6539 62.2809C47.2108 62.9314 45.5375 63.2566 43.6339 63.2566Z" fill="black"/>
<path d="M72.3973 50.3869C71.0003 50.3869 69.8029 49.8913 68.805 48.9002C67.8072 47.909 67.3159 46.701 67.3313 45.2762C67.3159 43.8824 67.8072 42.6899 68.805 41.6987C69.8029 40.7076 71.0003 40.212 72.3973 40.212C73.7483 40.212 74.9227 40.7076 75.9205 41.6987C76.9337 42.6899 77.448 43.8824 77.4634 45.2762C77.448 46.2209 77.2024 47.0805 76.7265 47.8548C76.2659 48.6292 75.6519 49.2486 74.8843 49.7133C74.1321 50.1624 73.3031 50.3869 72.3973 50.3869Z" fill="black"/>
<path d="M99.8256 49.8759H83.8445V2.29982H100.148C104.83 2.29982 108.852 3.25227 112.214 5.15717C115.592 7.04658 118.186 9.76455 119.998 13.3111C121.809 16.8576 122.715 21.101 122.715 26.0414C122.715 30.9972 121.802 35.2561 119.975 38.8181C118.163 42.3802 115.546 45.1136 112.122 47.0185C108.714 48.9234 104.615 49.8759 99.8256 49.8759ZM92.3877 42.4189H99.4111C102.696 42.4189 105.437 41.8149 107.632 40.6069C109.827 39.3834 111.478 37.5637 112.583 35.1477C113.688 32.7163 114.241 29.6808 114.241 26.0414C114.241 22.4019 113.688 19.382 112.583 16.9815C111.478 14.5655 109.843 12.7613 107.678 11.5688C105.529 10.3608 102.858 9.75681 99.6644 9.75681H92.3877V42.4189Z" fill="black"/>
<path d="M143.529 50.5728C139.982 50.5728 136.92 49.8294 134.341 48.3427C131.777 46.8404 129.804 44.7187 128.423 41.9775C127.041 39.2208 126.35 35.9763 126.35 32.2439C126.35 28.5735 127.041 25.3522 128.423 22.58C129.82 19.7924 131.769 17.6242 134.272 16.0755C136.774 14.5113 139.714 13.7292 143.091 13.7292C145.271 13.7292 147.328 14.0854 149.262 14.7978C151.212 15.4947 152.931 16.5788 154.421 18.0501C155.925 19.5214 157.107 21.3953 157.967 23.6719C158.827 25.933 159.256 28.6277 159.256 31.7561V34.3347H130.265V28.6664H151.266C151.25 27.0558 150.905 25.6232 150.23 24.3688C149.554 23.0989 148.61 22.0999 147.397 21.3721C146.2 20.6442 144.803 20.2802 143.206 20.2802C141.502 20.2802 140.005 20.6984 138.716 21.5347C137.426 22.3555 136.421 23.4396 135.699 24.7869C134.993 26.1188 134.632 27.5823 134.617 29.1775V34.1256C134.617 36.2008 134.993 37.9819 135.745 39.4686C136.498 40.9399 137.549 42.0704 138.9 42.8603C140.251 43.6346 141.832 44.0218 143.644 44.0218C144.857 44.0218 145.954 43.8514 146.937 43.5107C147.919 43.1545 148.771 42.6357 149.493 41.9543C150.214 41.2728 150.759 40.4288 151.128 39.4221L158.911 40.3049C158.42 42.3802 157.483 44.1921 156.102 45.7408C154.735 47.274 152.985 48.4665 150.851 49.3183C148.717 50.1546 146.277 50.5728 143.529 50.5728Z" fill="black"/>
<path d="M191.67 23.6254L184.071 24.4617C183.856 23.6874 183.48 22.9595 182.943 22.278C182.421 21.5966 181.715 21.0468 180.824 20.6287C179.934 20.2105 178.844 20.0015 177.554 20.0015C175.82 20.0015 174.361 20.3809 173.179 21.1397C172.012 21.8986 171.437 22.882 171.452 24.09C171.437 25.1276 171.813 25.9717 172.58 26.6221C173.363 27.2726 174.653 27.8069 176.449 28.225L182.482 29.526C185.829 30.2538 188.316 31.4076 189.943 32.9873C191.586 34.567 192.415 36.6345 192.43 39.1898C192.415 41.4355 191.762 43.4178 190.473 45.1368C189.198 46.8404 187.425 48.1723 185.153 49.1325C182.881 50.0927 180.271 50.5728 177.324 50.5728C172.995 50.5728 169.51 49.659 166.869 47.8316C164.229 45.9886 162.655 43.4255 162.149 40.1423L170.278 39.3524C170.646 40.9631 171.429 42.1788 172.626 42.9996C173.824 43.8204 175.382 44.2309 177.301 44.2309C179.281 44.2309 180.87 43.8204 182.068 42.9996C183.28 42.1788 183.887 41.1644 183.887 39.9564C183.887 38.9343 183.495 38.0903 182.712 37.4243C181.945 36.7584 180.747 36.2473 179.12 35.8911L173.087 34.6134C169.694 33.901 167.184 32.7008 165.557 31.0127C163.93 29.3091 163.124 27.1564 163.139 24.5546C163.124 22.3555 163.715 20.4506 164.912 18.8399C166.125 17.2138 167.806 15.9593 169.955 15.0766C172.12 14.1783 174.614 13.7292 177.439 13.7292C181.584 13.7292 184.846 14.6197 187.226 16.4007C189.621 18.1817 191.102 20.59 191.67 23.6254Z" fill="black"/>
<path d="M196.71 49.8759V14.1938H205.046V49.8759H196.71ZM200.901 9.12959C199.581 9.12959 198.445 8.68821 197.493 7.80545C196.541 6.9072 196.065 5.83085 196.065 4.57641C196.065 3.30647 196.541 2.23013 197.493 1.34737C198.445 0.449122 199.581 0 200.901 0C202.236 0 203.373 0.449122 204.309 1.34737C205.261 2.23013 205.737 3.30647 205.737 4.57641C205.737 5.83085 205.261 6.9072 204.309 7.80545C203.373 8.68821 202.236 9.12959 200.901 9.12959Z" fill="black"/>
<path d="M226.406 64C223.413 64 220.841 63.5896 218.692 62.7688C216.543 61.9635 214.816 60.8794 213.511 59.5165C212.206 58.1537 211.3 56.6437 210.794 54.9866L218.301 53.1514C218.638 53.8483 219.13 54.5374 219.774 55.2189C220.419 55.9158 221.287 56.4888 222.377 56.9379C223.482 57.4025 224.871 57.6349 226.545 57.6349C228.909 57.6349 230.866 57.0541 232.417 55.8926C233.967 54.7465 234.742 52.8571 234.742 50.2243V43.4642H234.328C233.898 44.3315 233.269 45.222 232.44 46.1358C231.626 47.0495 230.544 47.8161 229.193 48.4356C227.857 49.0551 226.176 49.3648 224.15 49.3648C221.432 49.3648 218.969 48.7221 216.758 47.4367C214.563 46.1358 212.812 44.1999 211.508 41.629C210.218 39.0427 209.573 35.8059 209.573 31.9187C209.573 28.0005 210.218 24.694 211.508 21.9993C212.812 19.2891 214.57 17.237 216.781 15.8432C218.992 14.4339 221.455 13.7292 224.173 13.7292C226.245 13.7292 227.949 14.0854 229.285 14.7978C230.636 15.4947 231.71 16.3388 232.509 17.3299C233.307 18.3056 233.913 19.2271 234.328 20.0944H234.788V14.1938H243.009V50.4566C243.009 53.5076 242.288 56.0319 240.845 58.0298C239.402 60.0276 237.429 61.5221 234.927 62.5133C232.424 63.5044 229.584 64 226.406 64ZM226.475 42.7673C228.241 42.7673 229.745 42.3337 230.989 41.4664C232.232 40.5992 233.176 39.3525 233.821 37.7263C234.466 36.1002 234.788 34.1488 234.788 31.8722C234.788 29.6266 234.466 27.6598 233.821 25.9717C233.192 24.2836 232.255 22.975 231.012 22.0457C229.784 21.101 228.272 20.6287 226.475 20.6287C224.618 20.6287 223.067 21.1165 221.824 22.0922C220.58 23.0679 219.644 24.4075 219.015 26.1111C218.385 27.7992 218.07 29.7195 218.07 31.8722C218.07 34.0559 218.385 35.9685 219.015 37.6102C219.659 39.2363 220.603 40.5062 221.847 41.42C223.106 42.3182 224.649 42.7673 226.475 42.7673Z" fill="black"/>
<path d="M257.295 28.9684V49.8759H248.959V14.1938H256.926V20.257H257.341C258.154 18.2592 259.451 16.6717 261.232 15.4947C263.028 14.3177 265.247 13.7292 267.887 13.7292C270.328 13.7292 272.454 14.2558 274.266 15.3089C276.093 16.362 277.505 17.8875 278.503 19.8853C279.516 21.8831 280.015 24.3068 280 27.1564V49.8759H271.664V28.4574C271.664 26.0724 271.05 24.2062 269.822 22.8588C268.609 21.5114 266.928 20.8377 264.779 20.8377C263.32 20.8377 262.023 21.163 260.887 21.8134C259.766 22.4484 258.883 23.3699 258.239 24.5779C257.609 25.7858 257.295 27.2494 257.295 28.9684Z" fill="black"/>
</svg>
